<?xml version="1.0" encoding="UTF-8" standalone="no"?>
<!--?xml version="1.0" encoding="UTF-8" standalone="no"?-->

<svg
   xmlns:dc="http://purl.org/dc/elements/1.1/"
   xmlns:cc="http://creativecommons.org/ns#"
   xmlns:rdf="http://www.w3.org/1999/02/22-rdf-syntax-ns#"
   xmlns:svg="http://www.w3.org/2000/svg"
   xmlns="http://www.w3.org/2000/svg"
   xmlns:sodipodi="http://sodipodi.sourceforge.net/DTD/sodipodi-0.dtd"
   xmlns:inkscape="http://www.inkscape.org/namespaces/inkscape"
   viewBox="0 0 17 16"
   version="1.1"
   class="si-glyph si-glyph-floppy-disk"
   id="svg14"
   sodipodi:docname="si-glyph-floppy-disk.svg"
   inkscape:version="0.92.4 (unknown)">
  <metadata
     id="metadata18">
    <rdf:RDF>
      <cc:Work
         rdf:about="">
        <dc:format>image/svg+xml</dc:format>
        <dc:type
           rdf:resource="http://purl.org/dc/dcmitype/StillImage" />
      </cc:Work>
    </rdf:RDF>
  </metadata>
  <sodipodi:namedview
     pagecolor="#ffffff"
     bordercolor="#666666"
     borderopacity="1"
     objecttolerance="10"
     gridtolerance="10"
     guidetolerance="10"
     inkscape:pageopacity="0"
     inkscape:pageshadow="2"
     inkscape:window-width="640"
     inkscape:window-height="480"
     id="namedview16"
     showgrid="false"
     inkscape:zoom="14.75"
     inkscape:cx="8.5"
     inkscape:cy="10.711864"
     inkscape:window-x="617"
     inkscape:window-y="395"
     inkscape:window-maximized="0"
     inkscape:current-layer="svg14" />
  <!-- Generator: Sketch 3.0.3 (7891) - http://www.bohemiancoding.com/sketch -->
  <title
     id="title2">832</title>
  <defs
     id="defs4" />
  <g
     stroke="none"
     stroke-width="1"
     fill="none"
     fill-rule="evenodd"
     id="g12"
     style="fill:#ffffff">
    <g
       transform="translate(0.968151, 0.000000)"
       fill="#434343"
       id="g10"
       style="fill:#ffffff">
      <path
         d="M11.993,0.031 L4.035,0.031 L4.035,5.983 L11.993,5.983 L11.993,0.031 L11.993,0.031 Z M11.0318493,5 L9.03184926,5 L9.03184926,1 L11.0318493,1 L11.0318493,5 L11.0318493,5 Z"
         class="si-glyph-fill"
         id="path6"
         style="fill:#ffffff" />
      <path
         d="M14.0196178,0.031 L13.1109039,0.031 L13.1109039,7.10112134 L2.97331513,7.10112134 L2.97331513,0.031 L2.02037174,0.031 C0.91564095,0.031 0.0209999999,0.950085607 0.0209999999,2.08335637 L0.0209999999,12.9776381 C0.0209999999,14.1109088 0.916646164,15.031 2.02037174,15.031 L14.020623,15.031 C15.1263591,15.031 16.021,14.1109088 16.021,12.9776381 L16.021,2.08335637 L14.0196178,0.031 L14.0196178,0.031 Z M12,13 L4,13 L4,12 L12,12 L12,13 L12,13 Z M12,11 L4,11 L4,10 L12,10 L12,11 L12,11 Z"
         class="si-glyph-fill"
         id="path8"
         style="fill:#ffffff" />
    </g>
  </g>
</svg>
