<?xml version="1.0" encoding="UTF-8" standalone="no"?>
<!--?xml version="1.0" encoding="UTF-8" standalone="no"?-->

<svg
   xmlns:dc="http://purl.org/dc/elements/1.1/"
   xmlns:cc="http://creativecommons.org/ns#"
   xmlns:rdf="http://www.w3.org/1999/02/22-rdf-syntax-ns#"
   xmlns:svg="http://www.w3.org/2000/svg"
   xmlns="http://www.w3.org/2000/svg"
   xmlns:sodipodi="http://sodipodi.sourceforge.net/DTD/sodipodi-0.dtd"
   xmlns:inkscape="http://www.inkscape.org/namespaces/inkscape"
   viewBox="0 0 17 16"
   version="1.1"
   class="si-glyph si-glyph-brush-1"
   id="svg14"
   sodipodi:docname="si-glyph-brush-1.svg"
   inkscape:version="0.92.4 (unknown)">
  <metadata
     id="metadata18">
    <rdf:RDF>
      <cc:Work
         rdf:about="">
        <dc:format>image/svg+xml</dc:format>
        <dc:type
           rdf:resource="http://purl.org/dc/dcmitype/StillImage" />
      </cc:Work>
    </rdf:RDF>
  </metadata>
  <sodipodi:namedview
     pagecolor="#ffffff"
     bordercolor="#666666"
     borderopacity="1"
     objecttolerance="10"
     gridtolerance="10"
     guidetolerance="10"
     inkscape:pageopacity="0"
     inkscape:pageshadow="2"
     inkscape:window-width="640"
     inkscape:window-height="480"
     id="namedview16"
     showgrid="false"
     inkscape:zoom="14.75"
     inkscape:cx="8.5"
     inkscape:cy="8"
     inkscape:window-x="0"
     inkscape:window-y="25"
     inkscape:window-maximized="0"
     inkscape:current-layer="svg14" />
  <!-- Generator: Sketch 3.0.3 (7891) - http://www.bohemiancoding.com/sketch -->
  <title
     id="title2">880</title>
  <defs
     id="defs4" />
  <g
     stroke="none"
     stroke-width="1"
     fill="none"
     fill-rule="evenodd"
     id="g12"
     style="fill:#6f4e37;fill-opacity:1">
    <g
       transform="translate(1.000000, 0.000000)"
       fill="#434343"
       id="g10"
       style="fill:#6f4e37;fill-opacity:1">
      <path
         d="M0.056,8.306 L4.364,4.955 L11.067,11.66 L7.717,15.968 C7.717,15.968 7.761,14.914 6.28,14.531 C4.89,14.172 4.648,12.243 3.437,11.843 C2.226,11.443 2.011,10.601 1.451,9.698 C0.891,8.795 0.056,8.306 0.056,8.306 L0.056,8.306 Z"
         class="si-glyph-fill"
         id="path6"
         style="fill:#6f4e37;fill-opacity:1" />
      <path
         d="M12.981,7.83 L11.835,6.684 C13.676,5.081 15.114,3.782 15.372,3.522 C16.167,2.729 16.165,1.444 15.372,0.651 C14.579,-0.143 13.292,-0.143 12.499,0.649 C12.241,0.909 10.94,2.346 9.339,4.189 L8.193,3.043 C7.664,2.514 6.806,2.513 6.277,3.042 L5.32,3.999 L12.024,10.704 L12.982,9.745 C13.51,9.217 13.51,8.358 12.981,7.83 L12.981,7.83 Z M13.246,2.777 C12.863,2.394 12.863,1.775 13.246,1.393 C13.627,1.011 14.246,1.012 14.629,1.394 C15.012,1.777 15.012,2.396 14.629,2.777 C14.247,3.16 13.629,3.16 13.246,2.777 L13.246,2.777 Z"
         class="si-glyph-fill"
         id="path8"
         style="fill:#6f4e37;fill-opacity:1" />
    </g>
  </g>
</svg>
