<?xml version="1.0" encoding="UTF-8" standalone="no"?>
<svg
   xmlns:dc="http://purl.org/dc/elements/1.1/"
   xmlns:cc="http://creativecommons.org/ns#"
   xmlns:rdf="http://www.w3.org/1999/02/22-rdf-syntax-ns#"
   xmlns:svg="http://www.w3.org/2000/svg"
   xmlns="http://www.w3.org/2000/svg"
   xmlns:sodipodi="http://sodipodi.sourceforge.net/DTD/sodipodi-0.dtd"
   xmlns:inkscape="http://www.inkscape.org/namespaces/inkscape"
   viewBox="0 0 17 16"
   version="1.1"
   class="si-glyph si-glyph-screen-ful"
   id="svg24"
   sodipodi:docname="si-glyph-screen-ful.svg"
   inkscape:version="0.92.4 (unknown)">
  <metadata
     id="metadata28">
    <rdf:RDF>
      <cc:Work
         rdf:about="">
        <dc:format>image/svg+xml</dc:format>
        <dc:type
           rdf:resource="http://purl.org/dc/dcmitype/StillImage" />
      </cc:Work>
    </rdf:RDF>
  </metadata>
  <sodipodi:namedview
     pagecolor="#ffffff"
     bordercolor="#666666"
     borderopacity="1"
     objecttolerance="10"
     gridtolerance="10"
     guidetolerance="10"
     inkscape:pageopacity="0"
     inkscape:pageshadow="2"
     inkscape:window-width="816"
     inkscape:window-height="480"
     id="namedview26"
     showgrid="false"
     inkscape:zoom="14.75"
     inkscape:cx="8.5"
     inkscape:cy="8"
     inkscape:window-x="0"
     inkscape:window-y="25"
     inkscape:window-maximized="0"
     inkscape:current-layer="svg24" />
  <title
     id="title2">1205</title>
  <defs
     id="defs4" />
  <g
     stroke="none"
     stroke-width="1"
     fill="none"
     fill-rule="evenodd"
     id="g22"
     style="fill:#ffffff;fill-opacity:1">
    <g
       transform="translate(0.000000, 1.000000)"
       fill="#434343"
       id="g20"
       style="fill:#ffffff;fill-opacity:1">
      <g
         transform="translate(4.000000, 4.000000)"
         id="g10"
         style="fill:#ffffff;fill-opacity:1">
        <path
           d="M0.021,0.001 L0.021,5.939 L7.978,5.939 L7.978,0.001 L0.021,0.001 L0.021,0.001 Z M7.042,5.062 L0.958,5.062 L0.958,0.937 L7.042,0.937 L7.042,5.062 L7.042,5.062 Z"
           class="si-glyph-fill"
           id="path6"
           style="fill:#ffffff;fill-opacity:1" />
        <rect
           x="2"
           y="2"
           width="3.917"
           height="1.938"
           class="si-glyph-fill"
           id="rect8"
           style="fill:#ffffff;fill-opacity:1" />
      </g>
      <path
         d="M12,0 L13.387,1.375 L12.002,2.756 L13.226,3.972 L14.613,2.591 L16,3.965 L16,0 L12,0 Z"
         class="si-glyph-fill"
         id="path12"
         style="fill:#ffffff;fill-opacity:1" />
      <path
         d="M2.763,10.04 L1.387,11.399 L0,10.035 L0,13.969 L4,13.969 L2.613,12.604 L3.988,11.246 L2.763,10.04 Z"
         class="si-glyph-fill"
         id="path14"
         style="fill:#ffffff;fill-opacity:1" />
      <path
         d="M2.761,3.971 L3.987,2.756 L2.607,1.381 L4,0 L0,0 L0,3.965 L1.381,2.597 L2.761,3.971 Z"
         class="si-glyph-fill"
         id="path16"
         style="fill:#ffffff;fill-opacity:1" />
      <path
         d="M13.27,10.08 L12.043,11.287 L13.381,12.609 L12,13.969 L16,13.969 L16,10.035 L14.607,11.405 L13.27,10.08 Z"
         class="si-glyph-fill"
         id="path18"
         style="fill:#ffffff;fill-opacity:1" />
    </g>
  </g>
</svg>
