<?xml version="1.0" encoding="UTF-8" standalone="no"?>
<!--?xml version="1.0" encoding="UTF-8" standalone="no"?-->

<svg
   xmlns:dc="http://purl.org/dc/elements/1.1/"
   xmlns:cc="http://creativecommons.org/ns#"
   xmlns:rdf="http://www.w3.org/1999/02/22-rdf-syntax-ns#"
   xmlns:svg="http://www.w3.org/2000/svg"
   xmlns="http://www.w3.org/2000/svg"
   xmlns:sodipodi="http://sodipodi.sourceforge.net/DTD/sodipodi-0.dtd"
   xmlns:inkscape="http://www.inkscape.org/namespaces/inkscape"
   viewBox="0 0 16 16"
   version="1.1"
   class="si-glyph si-glyph-trash"
   id="svg14"
   sodipodi:docname="si-glyph-trash.svg"
   inkscape:version="0.92.4 (unknown)">
  <metadata
     id="metadata18">
    <rdf:RDF>
      <cc:Work
         rdf:about="">
        <dc:format>image/svg+xml</dc:format>
        <dc:type
           rdf:resource="http://purl.org/dc/dcmitype/StillImage" />
      </cc:Work>
    </rdf:RDF>
  </metadata>
  <sodipodi:namedview
     pagecolor="#ffffff"
     bordercolor="#666666"
     borderopacity="1"
     objecttolerance="10"
     gridtolerance="10"
     guidetolerance="10"
     inkscape:pageopacity="0"
     inkscape:pageshadow="2"
     inkscape:window-width="640"
     inkscape:window-height="480"
     id="namedview16"
     showgrid="false"
     inkscape:zoom="14.75"
     inkscape:cx="8"
     inkscape:cy="8"
     inkscape:window-x="0"
     inkscape:window-y="25"
     inkscape:window-maximized="0"
     inkscape:current-layer="svg14" />
  <!-- Generator: Sketch 3.0.3 (7891) - http://www.bohemiancoding.com/sketch -->
  <title
     id="title2">630</title>
  <defs
     id="defs4" />
  <g
     stroke="none"
     stroke-width="1"
     fill="none"
     fill-rule="evenodd"
     id="g12"
     style="fill:#6f4e37;fill-opacity:1">
    <g
       transform="translate(1.000000, 0.000000)"
       fill="#434343"
       id="g10"
       style="fill:#6f4e37;fill-opacity:1">
      <path
         d="M0.982,5.073 L2.007,15.339 C2.007,15.705 2.314,16 2.691,16 L10.271,16 C10.648,16 10.955,15.705 10.955,15.339 L11.98,5.073 L0.982,5.073 L0.982,5.073 Z M7.033,14.068 L5.961,14.068 L5.961,6.989 L7.033,6.989 L7.033,14.068 L7.033,14.068 Z M9.033,14.068 L7.961,14.068 L8.961,6.989 L10.033,6.989 L9.033,14.068 L9.033,14.068 Z M5.033,14.068 L3.961,14.068 L2.961,6.989 L4.033,6.989 L5.033,14.068 L5.033,14.068 Z"
         class="si-glyph-fill"
         id="path6"
         style="fill:#6f4e37;fill-opacity:1" />
      <path
         d="M12.075,2.105 L8.937,2.105 L8.937,0.709 C8.937,0.317 8.481,0 8.081,0 L4.986,0 C4.586,0 4.031,0.225 4.031,0.615 L4.031,2.011 L0.886,2.105 C0.485,2.105 0.159,2.421 0.159,2.813 L0.159,3.968 L12.8,3.968 L12.8,2.813 C12.801,2.422 12.477,2.105 12.075,2.105 L12.075,2.105 Z M4.947,1.44 C4.947,1.128 5.298,0.875 5.73,0.875 L7.294,0.875 C7.726,0.875 8.076,1.129 8.076,1.44 L8.076,2.105 L4.946,2.105 L4.946,1.44 L4.947,1.44 Z"
         class="si-glyph-fill"
         id="path8"
         style="fill:#6f4e37;fill-opacity:1" />
    </g>
  </g>
</svg>
