<?xml version="1.0" encoding="UTF-8" standalone="no"?>
<svg
   xmlns:dc="http://purl.org/dc/elements/1.1/"
   xmlns:cc="http://creativecommons.org/ns#"
   xmlns:rdf="http://www.w3.org/1999/02/22-rdf-syntax-ns#"
   xmlns:svg="http://www.w3.org/2000/svg"
   xmlns="http://www.w3.org/2000/svg"
   xmlns:sodipodi="http://sodipodi.sourceforge.net/DTD/sodipodi-0.dtd"
   xmlns:inkscape="http://www.inkscape.org/namespaces/inkscape"
   viewBox="0 0 17 16"
   version="1.1"
   class="si-glyph si-glyph-view"
   id="svg3795"
   sodipodi:docname="si-glyph-noview.svg"
   inkscape:version="0.92.4 (unknown)">
  <metadata
     id="metadata3799">
    <rdf:RDF>
      <cc:Work
         rdf:about="">
        <dc:format>image/svg+xml</dc:format>
        <dc:type
           rdf:resource="http://purl.org/dc/dcmitype/StillImage" />
      </cc:Work>
    </rdf:RDF>
  </metadata>
  <sodipodi:namedview
     pagecolor="#ffffff"
     bordercolor="#666666"
     borderopacity="1"
     objecttolerance="10"
     gridtolerance="10"
     guidetolerance="10"
     inkscape:pageopacity="0"
     inkscape:pageshadow="2"
     inkscape:window-width="1600"
     inkscape:window-height="851"
     id="namedview3797"
     showgrid="false"
     inkscape:snap-grids="false"
     inkscape:zoom="41.75"
     inkscape:cx="8.5473641"
     inkscape:cy="8.9564317"
     inkscape:window-x="0"
     inkscape:window-y="25"
     inkscape:window-maximized="1"
     inkscape:current-layer="svg3795" />
  <title
     id="title3783">1127</title>
  <defs
     id="defs3785" />
  <g
     id="g3793"
     stroke-width="1"
     stroke="none"
     fill-rule="evenodd"
     fill="none"
     style="fill:#6f4e37;fill-opacity:1">
    <g
       transform="translate(1.000000, 4.000000)"
       id="g3791"
       fill="#434343"
       style="fill:#6f4e37;fill-opacity:1">
      <path
         d="M8,0 C3.598,0 0.031,2.66 0.031,3.969 C0.031,5.278 3.597,7.938 8,7.938 C12.4,7.938 15.969,5.32 15.969,3.969 C15.969,2.618 12.4,0 8,0 L8,0 Z M7.99,7.062 C4.342,7.062 2.869,5.011 2.869,4 C2.869,2.989 4.342,0.938 7.99,0.938 C11.636,0.938 13.109,2.958 13.109,4 C13.109,5.042 11.637,7.062 7.99,7.062 L7.99,7.062 Z"
         class="si-glyph-fill"
         id="path3787"
         style="fill:#6f4e37;fill-opacity:1" />
      <ellipse
         cx="7.932"
         cy="3.963"
         rx="1.932"
         ry="1.963"
         class="si-glyph-fill"
         id="ellipse3789"
         style="fill:#6f4e37;fill-opacity:1" />
    </g>
  </g>
  <rect
     style="fill:#6f4e37;stroke-width:1.30993307;fill-opacity:1"
     id="rect5472"
     width="17.388336"
     height="1.2180052"
     x="-19.176462"
     y="-4.4847999"
     transform="matrix(-0.90978617,-0.41507724,0.15545449,-0.98784306,0,0)" />
</svg>
