<?xml version="1.0" encoding="UTF-8" standalone="no"?>
<!--?xml version="1.0" encoding="UTF-8" standalone="no"?-->

<svg
   xmlns:dc="http://purl.org/dc/elements/1.1/"
   xmlns:cc="http://creativecommons.org/ns#"
   xmlns:rdf="http://www.w3.org/1999/02/22-rdf-syntax-ns#"
   xmlns:svg="http://www.w3.org/2000/svg"
   xmlns="http://www.w3.org/2000/svg"
   xmlns:sodipodi="http://sodipodi.sourceforge.net/DTD/sodipodi-0.dtd"
   xmlns:inkscape="http://www.inkscape.org/namespaces/inkscape"
   viewBox="0 0 16 16"
   version="1.1"
   class="si-glyph si-glyph-backward-page"
   id="svg14"
   sodipodi:docname="si-glyph-backward-page.svg"
   inkscape:version="0.92.4 (unknown)">
  <metadata
     id="metadata18">
    <rdf:RDF>
      <cc:Work
         rdf:about="">
        <dc:format>image/svg+xml</dc:format>
        <dc:type
           rdf:resource="http://purl.org/dc/dcmitype/StillImage" />
      </cc:Work>
    </rdf:RDF>
  </metadata>
  <sodipodi:namedview
     pagecolor="#ffffff"
     bordercolor="#666666"
     borderopacity="1"
     objecttolerance="10"
     gridtolerance="10"
     guidetolerance="10"
     inkscape:pageopacity="0"
     inkscape:pageshadow="2"
     inkscape:window-width="816"
     inkscape:window-height="480"
     id="namedview16"
     showgrid="false"
     inkscape:zoom="14.75"
     inkscape:cx="8"
     inkscape:cy="8"
     inkscape:window-x="0"
     inkscape:window-y="25"
     inkscape:window-maximized="0"
     inkscape:current-layer="svg14" />
  <!-- Generator: Sketch 3.0.3 (7891) - http://www.bohemiancoding.com/sketch -->
  <title
     id="title2">87</title>
  <defs
     id="defs4" />
  <g
     stroke="none"
     stroke-width="1"
     fill="none"
     fill-rule="evenodd"
     id="g12"
     style="fill:#ffffff">
    <g
       transform="translate(0.000000, 1.000000)"
       fill="#434343"
       id="g10"
       style="fill:#ffffff">
      <path
         d="M0.252,3.516 L4.157,0.266 C4.433,-0.022 4.75,-0.069 5.028,0.218 C5.028,0.218 4.991,2.408 5.022,2.408 C5.701,2.408 6.105,2.521 6.722,2.722 C7.544,2.993 8.294,3.428 8.93,3.99 C10.206,5.113 11.023,6.392 11.023,8.203 C11.023,9.385 10.5,8.955 10.281,8.542 C9.246,6.597 7.358,5.614 4.999,5.614 C4.969,5.614 5.002,7.76 5.002,7.76 C4.723,8.047 4.373,8.013 4.132,7.807 L0.252,4.557 C-0.027,4.268 -0.027,3.804 0.252,3.516 L0.252,3.516 Z"
         class="si-glyph-fill"
         id="path6"
         style="fill:#ffffff" />
      <path
         d="M1.954,8.079 L1.954,13.062 L15.072,13.062 L15.072,3.937 L9.871,3.937 C9.596,3.625 9.252,3.22 8.652,3.018 L16,3.018 L16,13.982 L1.08,13.982 L1.08,7.258 L1.954,8.079 L1.954,8.079 Z"
         class="si-glyph-fill"
         id="path8"
         style="fill:#ffffff" />
    </g>
  </g>
</svg>
